<svg xmlns="http://www.w3.org/2000/svg" xmlns:xlink="http://www.w3.org/1999/xlink" width="600" zoomAndPan="magnify" viewBox="0 0 450 449.999984" height="600" preserveAspectRatio="xMidYMid meet" version="1.0"><defs><clipPath id="f0f55adb04"><path d="M 47.523438 144.382812 L 189.804688 144.382812 L 189.804688 286.667969 L 47.523438 286.667969 Z M 47.523438 144.382812 " clip-rule="nonzero"/></clipPath><clipPath id="8736d7dc23"><path d="M 47.523438 144.382812 L 189.804688 144.382812 L 189.804688 286.664062 L 47.523438 286.664062 Z M 47.523438 144.382812 " clip-rule="nonzero"/></clipPath><clipPath id="5334b9ec2b"><path d="M 47.523438 198.730469 L 135.460938 198.730469 L 135.460938 286.667969 L 47.523438 286.667969 Z M 47.523438 198.730469 " clip-rule="nonzero"/></clipPath></defs><g clip-path="url(#f0f55adb04)"><path fill="#ffffff" d="M 47.523438 144.382812 L 189.804688 144.382812 L 189.804688 286.667969 L 47.523438 286.667969 Z M 47.523438 144.382812 " fill-opacity="1" fill-rule="nonzero"/></g><g clip-path="url(#8736d7dc23)"><path stroke-linecap="butt" transform="matrix(0.879375, 0.000000000000000007, -0.000000000000000007, 0.879375, 47.523424, 144.383821)" fill="none" stroke-linejoin="miter" d="M 0.0000148418 -0.00114656 L 161.79818 -0.00114656 L 161.79818 161.797018 L 0.0000148418 161.797018 Z M 0.0000148418 -0.00114656 " stroke="#000000" stroke-width="4" stroke-opacity="1" stroke-miterlimit="4"/></g><g clip-path="url(#5334b9ec2b)"><path fill="#5e8fcc" d="M 47.523438 198.730469 L 135.460938 198.730469 L 135.460938 286.667969 L 47.523438 286.667969 Z M 47.523438 198.730469 " fill-opacity="1" fill-rule="nonzero"/></g><path fill="#000000" d="M 135.402344 231.902344 L 128.933594 230.839844 L 128.933594 225.765625 L 147.511719 225.765625 L 171.894531 262.589844 L 176.476562 271.914062 L 176.476562 231.902344 L 169.441406 230.839844 L 169.441406 225.765625 L 189.738281 225.765625 L 189.738281 230.839844 L 183.4375 231.902344 L 183.4375 286.570312 L 173.523438 286.570312 L 148.078125 247.859375 L 142.34375 237.050781 L 142.34375 280.835938 L 150.605469 281.660156 L 150.605469 286.570312 L 128.933594 286.570312 L 128.933594 281.660156 L 135.402344 280.835938 Z M 135.402344 231.902344 " fill-opacity="1" fill-rule="nonzero"/><path fill="#000000" d="M 194.144531 273.800781 C 194.144531 268.84375 196.632812 265.113281 201.617188 262.605469 C 206.609375 260.09375 213.066406 258.804688 220.980469 258.742188 L 220.980469 256.855469 C 220.980469 254.621094 220.75 252.878906 220.285156 251.632812 C 219.820312 250.378906 218.972656 249.433594 217.738281 248.8125 C 216.515625 248.179688 214.734375 247.859375 212.390625 247.859375 C 209.714844 247.859375 207.316406 248.203125 205.191406 248.886719 C 203.066406 249.570312 200.851562 250.457031 198.558594 251.542969 L 196.03125 246.300781 C 196.84375 245.597656 198.21875 244.753906 200.152344 243.773438 C 202.09375 242.785156 204.402344 241.921875 207.078125 241.191406 C 209.75 240.457031 212.503906 240.089844 215.339844 240.089844 C 219.539062 240.089844 222.824219 240.636719 225.195312 241.722656 C 227.5625 242.8125 229.265625 244.558594 230.308594 246.960938 C 231.34375 249.371094 231.863281 252.585938 231.863281 256.617188 L 231.863281 281.660156 L 236.28125 281.660156 L 236.28125 286.238281 C 235.1875 286.511719 233.632812 286.777344 231.609375 287.046875 C 229.59375 287.324219 227.820312 287.46875 226.296875 287.46875 C 224.449219 287.46875 223.207031 287.191406 222.574219 286.644531 C 221.953125 286.105469 221.640625 284.988281 221.640625 283.289062 L 221.640625 281.09375 C 220.164062 282.730469 218.253906 284.203125 215.90625 285.507812 C 213.5625 286.8125 210.914062 287.46875 207.976562 287.46875 C 205.457031 287.46875 203.148438 286.9375 201.050781 285.875 C 198.949219 284.8125 197.265625 283.261719 196.011719 281.21875 C 194.765625 279.167969 194.144531 276.695312 194.144531 273.800781 Z M 213.214844 280.671875 C 214.351562 280.671875 215.65625 280.335938 217.136719 279.664062 C 218.609375 278.980469 219.890625 278.144531 220.980469 277.152344 L 220.980469 263.742188 C 216.070312 263.742188 212.398438 264.578125 209.972656 266.234375 C 207.539062 267.898438 206.324219 270.039062 206.324219 272.664062 C 206.324219 275.28125 206.933594 277.273438 208.15625 278.636719 C 209.390625 279.992188 211.074219 280.671875 213.214844 280.671875 Z M 213.214844 280.671875 " fill-opacity="1" fill-rule="nonzero"/><path fill="#000000" d="M 248.644531 306.941406 C 247.65625 306.941406 246.597656 306.855469 245.472656 306.6875 C 244.363281 306.523438 243.558594 306.34375 243.074219 306.136719 L 243.074219 297.378906 C 243.449219 297.597656 244.214844 297.808594 245.363281 298.019531 C 246.507812 298.238281 247.550781 298.351562 248.480469 298.351562 C 251.199219 298.351562 253.449219 297.441406 255.222656 295.636719 C 256.988281 293.84375 258.636719 290.820312 260.167969 286.570312 L 255.753906 286.570312 L 240.363281 246.886719 L 236.679688 245.808594 L 236.679688 241.0625 L 259.195312 241.0625 L 259.195312 245.808594 L 253.222656 246.796875 L 260.496094 269.457031 L 263.445312 279.132812 L 265.992188 269.457031 L 272.699219 246.796875 L 267.53125 245.808594 L 267.53125 241.0625 L 285.304688 241.0625 L 285.304688 245.808594 L 281.289062 246.796875 C 278.285156 255.957031 275.308594 264.796875 272.367188 273.304688 C 269.421875 281.820312 267.707031 286.59375 267.21875 287.632812 C 265.472656 292.210938 263.804688 295.863281 262.21875 298.589844 C 260.644531 301.324219 258.761719 303.398438 256.578125 304.816406 C 254.386719 306.230469 251.746094 306.941406 248.644531 306.941406 Z M 248.644531 306.941406 " fill-opacity="1" fill-rule="nonzero"/><path fill="#000000" d="M 325.152344 287.394531 C 323.34375 287.394531 322.027344 287.015625 321.214844 286.257812 C 320.394531 285.488281 319.984375 284.34375 319.984375 282.8125 L 319.984375 280.597656 C 318.519531 282.394531 316.449219 283.988281 313.777344 285.378906 C 311.101562 286.769531 308.425781 287.46875 305.75 287.46875 C 300.511719 287.46875 296.773438 286.121094 294.539062 283.417969 C 292.304688 280.722656 291.1875 276.265625 291.1875 270.046875 L 291.1875 246.960938 L 287.082031 245.808594 L 287.082031 241.152344 L 301.007812 240.089844 L 301.078125 240.089844 L 302.726562 241.226562 L 302.726562 270.046875 C 302.726562 274.03125 303.214844 276.8125 304.195312 278.398438 C 305.167969 279.976562 306.996094 280.761719 309.671875 280.761719 C 312.894531 280.761719 315.902344 279.507812 318.683594 276.988281 L 318.683594 246.960938 L 313.1875 245.734375 L 313.1875 241.152344 L 328.011719 240.089844 L 328.175781 240.089844 L 330.136719 241.226562 L 330.136719 281.496094 L 334.714844 281.496094 L 334.640625 286.167969 C 334.421875 286.21875 333.40625 286.433594 331.601562 286.808594 C 329.804688 287.199219 327.652344 287.394531 325.152344 287.394531 Z M 325.152344 287.394531 " fill-opacity="1" fill-rule="nonzero"/><path fill="#000000" d="M 354.261719 287.304688 C 350.828125 287.304688 348.292969 286.515625 346.660156 284.9375 C 345.019531 283.355469 344.203125 280.84375 344.203125 277.410156 L 344.203125 247.363281 L 338.890625 247.363281 L 338.890625 243.113281 C 339.316406 242.957031 340.105469 242.675781 341.253906 242.269531 C 342.398438 241.859375 343.273438 241.511719 343.875 241.226562 C 344.800781 240.523438 345.597656 239.292969 346.257812 237.542969 C 346.742188 236.398438 347.640625 233.566406 348.949219 229.042969 L 355.488281 229.042969 L 355.820312 241.0625 L 368.351562 241.0625 L 368.351562 247.363281 L 355.910156 247.363281 L 355.910156 270.375 C 355.910156 273.429688 355.988281 275.585938 356.148438 276.84375 C 356.320312 278.085938 356.671875 278.890625 357.210938 279.242188 C 357.761719 279.597656 358.71875 279.773438 360.089844 279.773438 C 361.445312 279.773438 362.859375 279.625 364.339844 279.332031 C 365.8125 279.03125 367.039062 278.65625 368.019531 278.214844 L 369.578125 282.8125 C 368.046875 283.949219 365.808594 284.984375 362.855469 285.910156 C 359.910156 286.835938 357.046875 287.304688 354.261719 287.304688 Z M 354.261719 287.304688 " fill-opacity="1" fill-rule="nonzero"/><path fill="#000000" d="M 373.007812 273.800781 C 373.007812 268.84375 375.5 265.113281 380.484375 262.605469 C 385.476562 260.09375 391.933594 258.804688 399.847656 258.742188 L 399.847656 256.855469 C 399.847656 254.621094 399.613281 252.878906 399.152344 251.632812 C 398.683594 250.378906 397.835938 249.433594 396.605469 248.8125 C 395.382812 248.179688 393.601562 247.859375 391.253906 247.859375 C 388.582031 247.859375 386.179688 248.203125 384.054688 248.886719 C 381.929688 249.570312 379.71875 250.457031 377.421875 251.542969 L 374.894531 246.300781 C 375.710938 245.597656 377.085938 244.753906 379.015625 243.773438 C 380.960938 242.785156 383.265625 241.921875 385.941406 241.191406 C 388.617188 240.457031 391.371094 240.089844 394.203125 240.089844 C 398.40625 240.089844 401.6875 240.636719 404.0625 241.722656 C 406.429688 242.8125 408.132812 244.558594 409.171875 246.960938 C 410.207031 249.371094 410.730469 252.585938 410.730469 256.617188 L 410.730469 281.660156 L 415.144531 281.660156 L 415.144531 286.238281 C 414.054688 286.511719 412.496094 286.777344 410.472656 287.046875 C 408.457031 287.324219 406.683594 287.46875 405.160156 287.46875 C 403.316406 287.46875 402.074219 287.191406 401.441406 286.644531 C 400.820312 286.105469 400.507812 284.988281 400.507812 283.289062 L 400.507812 281.09375 C 399.027344 282.730469 397.117188 284.203125 394.773438 285.507812 C 392.425781 286.8125 389.78125 287.46875 386.839844 287.46875 C 384.320312 287.46875 382.011719 286.9375 379.914062 285.875 C 377.8125 284.8125 376.132812 283.261719 374.875 281.21875 C 373.632812 279.167969 373.007812 276.695312 373.007812 273.800781 Z M 392.078125 280.671875 C 393.214844 280.671875 394.519531 280.335938 396 279.664062 C 397.476562 278.980469 398.757812 278.144531 399.847656 277.152344 L 399.847656 263.742188 C 394.9375 263.742188 391.265625 264.578125 388.835938 266.234375 C 386.40625 267.898438 385.191406 270.039062 385.191406 272.664062 C 385.191406 275.28125 385.800781 277.273438 387.023438 278.636719 C 388.253906 279.992188 389.941406 280.671875 392.078125 280.671875 Z M 392.078125 280.671875 " fill-opacity="1" fill-rule="nonzero"/></svg>