<svg xmlns="http://www.w3.org/2000/svg" xmlns:xlink="http://www.w3.org/1999/xlink" width="800" zoomAndPan="magnify" viewBox="0 0 600 599.999999" height="800" preserveAspectRatio="xMidYMid meet" version="1.0"><defs><g/><clipPath id="f5938e9bb2"><path d="M 128.238281 230.855469 L 249.585938 230.855469 L 249.585938 352.207031 L 128.238281 352.207031 Z M 128.238281 230.855469 " clip-rule="nonzero"/></clipPath><clipPath id="90a72248dd"><path d="M 0.238281 0.855469 L 121.585938 0.855469 L 121.585938 122.207031 L 0.238281 122.207031 Z M 0.238281 0.855469 " clip-rule="nonzero"/></clipPath><clipPath id="41c83eb1c3"><rect x="0" width="122" y="0" height="123"/></clipPath><clipPath id="30ad661140"><path d="M 128.238281 230.855469 L 249.585938 230.855469 L 249.585938 352.203125 L 128.238281 352.203125 Z M 128.238281 230.855469 " clip-rule="nonzero"/></clipPath><clipPath id="96a5894066"><path d="M 128.238281 277.207031 L 203.238281 277.207031 L 203.238281 352.207031 L 128.238281 352.207031 Z M 128.238281 277.207031 " clip-rule="nonzero"/></clipPath><clipPath id="7095240b15"><path d="M 0.238281 0.207031 L 75.238281 0.207031 L 75.238281 75.207031 L 0.238281 75.207031 Z M 0.238281 0.207031 " clip-rule="nonzero"/></clipPath><clipPath id="6bd85e0f16"><rect x="0" width="76" y="0" height="76"/></clipPath></defs><g clip-path="url(#f5938e9bb2)"><g transform="matrix(1, 0, 0, 1, 128, 230)"><g clip-path="url(#41c83eb1c3)"><g clip-path="url(#90a72248dd)"><path fill="#ffffff" d="M 0.238281 0.855469 L 121.585938 0.855469 L 121.585938 122.207031 L 0.238281 122.207031 Z M 0.238281 0.855469 " fill-opacity="1" fill-rule="nonzero"/></g></g></g></g><g clip-path="url(#30ad661140)"><path stroke-linecap="butt" transform="matrix(0.75, 0, 0, 0.75, 128.23728, 230.85625)" fill="none" stroke-linejoin="miter" d="M 0.0013355 -0.00104187 L 161.798228 -0.00104187 L 161.798228 161.79585 L 0.0013355 161.79585 Z M 0.0013355 -0.00104187 " stroke="#000000" stroke-width="4" stroke-opacity="1" stroke-miterlimit="4"/></g><g clip-path="url(#96a5894066)"><g transform="matrix(1, 0, 0, 1, 128, 277)"><g clip-path="url(#6bd85e0f16)"><g clip-path="url(#7095240b15)"><path fill="#5e8fcc" d="M 0.238281 0.207031 L 75.238281 0.207031 L 75.238281 75.207031 L 0.238281 75.207031 Z M 0.238281 0.207031 " fill-opacity="1" fill-rule="nonzero"/></g></g></g></g><g fill="#000000" fill-opacity="1"><g transform="translate(194.873286, 352.123774)"><g><path d="M 8.3125 -46.625 L 2.796875 -47.53125 L 2.796875 -51.859375 L 18.640625 -51.859375 L 39.4375 -20.453125 L 43.34375 -12.5 L 43.34375 -46.625 L 37.34375 -47.53125 L 37.34375 -51.859375 L 54.65625 -51.859375 L 54.65625 -47.53125 L 49.28125 -46.625 L 49.28125 0 L 40.828125 0 L 19.125 -33.015625 L 14.234375 -42.234375 L 14.234375 -4.890625 L 21.28125 -4.1875 L 21.28125 0 L 2.796875 0 L 2.796875 -4.1875 L 8.3125 -4.890625 Z M 8.3125 -46.625 "/></g></g></g><g fill="#000000" fill-opacity="1"><g transform="translate(250.910779, 352.123774)"><g><path d="M 2.375 -10.890625 C 2.375 -15.117188 4.5 -18.300781 8.75 -20.4375 C 13.007812 -22.582031 18.515625 -23.679688 25.265625 -23.734375 L 25.265625 -25.34375 C 25.265625 -27.25 25.066406 -28.734375 24.671875 -29.796875 C 24.273438 -30.867188 23.550781 -31.671875 22.5 -32.203125 C 21.457031 -32.742188 19.9375 -33.015625 17.9375 -33.015625 C 15.65625 -33.015625 13.609375 -32.722656 11.796875 -32.140625 C 9.984375 -31.554688 8.097656 -30.800781 6.140625 -29.875 L 3.984375 -34.34375 C 4.679688 -34.945312 5.851562 -35.664062 7.5 -36.5 C 9.15625 -37.34375 11.125 -38.078125 13.40625 -38.703125 C 15.6875 -39.328125 18.035156 -39.640625 20.453125 -39.640625 C 24.035156 -39.640625 26.835938 -39.175781 28.859375 -38.25 C 30.878906 -37.320312 32.332031 -35.832031 33.21875 -33.78125 C 34.101562 -31.726562 34.546875 -28.984375 34.546875 -25.546875 L 34.546875 -4.1875 L 38.3125 -4.1875 L 38.3125 -0.28125 C 37.382812 -0.0507812 36.054688 0.175781 34.328125 0.40625 C 32.609375 0.644531 31.097656 0.765625 29.796875 0.765625 C 28.222656 0.765625 27.164062 0.53125 26.625 0.0625 C 26.09375 -0.394531 25.828125 -1.347656 25.828125 -2.796875 L 25.828125 -4.671875 C 24.566406 -3.273438 22.9375 -2.019531 20.9375 -0.90625 C 18.9375 0.207031 16.679688 0.765625 14.171875 0.765625 C 12.023438 0.765625 10.054688 0.3125 8.265625 -0.59375 C 6.472656 -1.5 5.039062 -2.820312 3.96875 -4.5625 C 2.90625 -6.3125 2.375 -8.421875 2.375 -10.890625 Z M 18.640625 -5.03125 C 19.609375 -5.03125 20.722656 -5.316406 21.984375 -5.890625 C 23.242188 -6.472656 24.335938 -7.1875 25.265625 -8.03125 L 25.265625 -19.46875 C 21.078125 -19.46875 17.945312 -18.757812 15.875 -17.34375 C 13.800781 -15.925781 12.765625 -14.097656 12.765625 -11.859375 C 12.765625 -9.628906 13.285156 -7.929688 14.328125 -6.765625 C 15.378906 -5.609375 16.816406 -5.03125 18.640625 -5.03125 Z M 18.640625 -5.03125 "/></g></g></g><g fill="#000000" fill-opacity="1"><g transform="translate(290.40919, 352.123774)"><g><path d="M 9.359375 17.375 C 8.515625 17.375 7.613281 17.300781 6.65625 17.15625 C 5.707031 17.019531 5.023438 16.863281 4.609375 16.6875 L 4.609375 9.21875 C 4.929688 9.40625 5.582031 9.585938 6.5625 9.765625 C 7.539062 9.953125 8.425781 10.046875 9.21875 10.046875 C 11.539062 10.046875 13.457031 9.273438 14.96875 7.734375 C 16.476562 6.203125 17.882812 3.625 19.1875 0 L 15.421875 0 L 2.296875 -33.84375 L -0.84375 -34.765625 L -0.84375 -38.8125 L 18.359375 -38.8125 L 18.359375 -34.765625 L 13.265625 -33.921875 L 19.46875 -14.59375 L 21.984375 -6.34375 L 24.15625 -14.59375 L 29.875 -33.921875 L 25.46875 -34.765625 L 25.46875 -38.8125 L 40.625 -38.8125 L 40.625 -34.765625 L 37.203125 -33.921875 C 34.640625 -26.109375 32.101562 -18.570312 29.59375 -11.3125 C 27.082031 -4.050781 25.617188 0.0195312 25.203125 0.90625 C 23.710938 4.8125 22.289062 7.925781 20.9375 10.25 C 19.59375 12.582031 17.988281 14.351562 16.125 15.5625 C 14.257812 16.769531 12.003906 17.375 9.359375 17.375 Z M 9.359375 17.375 "/></g></g></g><g fill="#000000" fill-opacity="1"><g transform="translate(330.396093, 352.123774)"><g><path d="M 34.625 0.703125 C 33.082031 0.703125 31.960938 0.378906 31.265625 -0.265625 C 30.566406 -0.921875 30.21875 -1.898438 30.21875 -3.203125 L 30.21875 -5.09375 C 28.96875 -3.5625 27.203125 -2.203125 24.921875 -1.015625 C 22.640625 0.171875 20.359375 0.765625 18.078125 0.765625 C 13.609375 0.765625 10.421875 -0.382812 8.515625 -2.6875 C 6.609375 -4.988281 5.65625 -8.789062 5.65625 -14.09375 L 5.65625 -33.78125 L 2.15625 -34.765625 L 2.15625 -38.734375 L 14.03125 -39.640625 L 14.09375 -39.640625 L 15.5 -38.671875 L 15.5 -14.09375 C 15.5 -10.695312 15.914062 -8.320312 16.75 -6.96875 C 17.582031 -5.625 19.140625 -4.953125 21.421875 -4.953125 C 24.171875 -4.953125 26.734375 -6.023438 29.109375 -8.171875 L 29.109375 -33.78125 L 24.421875 -34.828125 L 24.421875 -38.734375 L 37.0625 -39.640625 L 37.203125 -39.640625 L 38.875 -38.671875 L 38.875 -4.328125 L 42.78125 -4.328125 L 42.71875 -0.34375 C 42.53125 -0.300781 41.664062 -0.117188 40.125 0.203125 C 38.59375 0.535156 36.757812 0.703125 34.625 0.703125 Z M 34.625 0.703125 "/></g></g></g><g fill="#000000" fill-opacity="1"><g transform="translate(374.988818, 352.123774)"><g><path d="M 14.859375 0.625 C 11.929688 0.625 9.769531 -0.046875 8.375 -1.390625 C 6.976562 -2.742188 6.28125 -4.882812 6.28125 -7.8125 L 6.28125 -33.4375 L 1.75 -33.4375 L 1.75 -37.0625 C 2.113281 -37.195312 2.785156 -37.4375 3.765625 -37.78125 C 4.742188 -38.132812 5.488281 -38.429688 6 -38.671875 C 6.789062 -39.273438 7.46875 -40.320312 8.03125 -41.8125 C 8.445312 -42.789062 9.210938 -45.207031 10.328125 -49.0625 L 15.90625 -49.0625 L 16.1875 -38.8125 L 26.875 -38.8125 L 26.875 -33.4375 L 16.265625 -33.4375 L 16.265625 -13.8125 C 16.265625 -11.207031 16.332031 -9.367188 16.46875 -8.296875 C 16.613281 -7.234375 16.914062 -6.550781 17.375 -6.25 C 17.84375 -5.945312 18.660156 -5.796875 19.828125 -5.796875 C 20.984375 -5.796875 22.191406 -5.921875 23.453125 -6.171875 C 24.710938 -6.429688 25.757812 -6.75 26.59375 -7.125 L 27.921875 -3.203125 C 26.617188 -2.234375 24.707031 -1.351562 22.1875 -0.5625 C 19.675781 0.226562 17.234375 0.625 14.859375 0.625 Z M 14.859375 0.625 "/></g></g></g><g fill="#000000" fill-opacity="1"><g transform="translate(403.461168, 352.123774)"><g><path d="M 2.375 -10.890625 C 2.375 -15.117188 4.5 -18.300781 8.75 -20.4375 C 13.007812 -22.582031 18.515625 -23.679688 25.265625 -23.734375 L 25.265625 -25.34375 C 25.265625 -27.25 25.066406 -28.734375 24.671875 -29.796875 C 24.273438 -30.867188 23.550781 -31.671875 22.5 -32.203125 C 21.457031 -32.742188 19.9375 -33.015625 17.9375 -33.015625 C 15.65625 -33.015625 13.609375 -32.722656 11.796875 -32.140625 C 9.984375 -31.554688 8.097656 -30.800781 6.140625 -29.875 L 3.984375 -34.34375 C 4.679688 -34.945312 5.851562 -35.664062 7.5 -36.5 C 9.15625 -37.34375 11.125 -38.078125 13.40625 -38.703125 C 15.6875 -39.328125 18.035156 -39.640625 20.453125 -39.640625 C 24.035156 -39.640625 26.835938 -39.175781 28.859375 -38.25 C 30.878906 -37.320312 32.332031 -35.832031 33.21875 -33.78125 C 34.101562 -31.726562 34.546875 -28.984375 34.546875 -25.546875 L 34.546875 -4.1875 L 38.3125 -4.1875 L 38.3125 -0.28125 C 37.382812 -0.0507812 36.054688 0.175781 34.328125 0.40625 C 32.609375 0.644531 31.097656 0.765625 29.796875 0.765625 C 28.222656 0.765625 27.164062 0.53125 26.625 0.0625 C 26.09375 -0.394531 25.828125 -1.347656 25.828125 -2.796875 L 25.828125 -4.671875 C 24.566406 -3.273438 22.9375 -2.019531 20.9375 -0.90625 C 18.9375 0.207031 16.679688 0.765625 14.171875 0.765625 C 12.023438 0.765625 10.054688 0.3125 8.265625 -0.59375 C 6.472656 -1.5 5.039062 -2.820312 3.96875 -4.5625 C 2.90625 -6.3125 2.375 -8.421875 2.375 -10.890625 Z M 18.640625 -5.03125 C 19.609375 -5.03125 20.722656 -5.316406 21.984375 -5.890625 C 23.242188 -6.472656 24.335938 -7.1875 25.265625 -8.03125 L 25.265625 -19.46875 C 21.078125 -19.46875 17.945312 -18.757812 15.875 -17.34375 C 13.800781 -15.925781 12.765625 -14.097656 12.765625 -11.859375 C 12.765625 -9.628906 13.285156 -7.929688 14.328125 -6.765625 C 15.378906 -5.609375 16.816406 -5.03125 18.640625 -5.03125 Z M 18.640625 -5.03125 "/></g></g></g></svg>